#define fuel_width 8
#define fuel_height 7
static unsigned char fuel_bits[] = {
   0xe0, 0x0e, 0x6e, 0x60, 0x60, 0xe0, 0xe0 };
